<svg xmlns="http://www.w3.org/2000/svg" xmlns:xlink="http://www.w3.org/1999/xlink" viewBox="0 0 200 200"><defs><linearGradient id="a" x1="317.26" x2="326.472" y1="191.298" y2="187.697" gradientTransform="scale(-1 1) rotate(-16.679 -112.307 1811.586)" gradientUnits="userSpaceOnUse"><stop offset="0" stop-color="#ffffff" class="stopColorfff svgShape"/><stop offset="1" stop-color="#000000" class="stopColor000000 svgShape"/></linearGradient><linearGradient id="b" x1="319.921" x2="317.129" y1="210.495" y2="226.687" xlink:href="#a"/><linearGradient id="c" x1="303.473" x2="336.423" y1="189.424" y2="203.896" xlink:href="#a"/><linearGradient id="d" x1="287.685" x2="325.416" y1="167.175" y2="214.597" xlink:href="#a"/><linearGradient id="e" x1="94.885" x2="150.387" y1="91.037" y2="172.002" gradientTransform="matrix(1.029 .141 -.1902 .9404 27.505 -9.74)" xlink:href="#a"/><linearGradient id="f" x1="103.123" x2="69.785" y1="94.796" y2="38.739" gradientTransform="matrix(1.029 .141 -.1902 .9404 27.505 -9.74)" xlink:href="#a"/><linearGradient id="g" x1="145.52" x2="164.398" y1="67.763" y2="89.831" gradientTransform="matrix(-.8847 -.4802 -.5588 .8208 316.592 83.382)" xlink:href="#a"/><linearGradient id="h" x1="33.285" x2="51.147" y1="94.337" y2="122.785" gradientTransform="rotate(14.046 58.65 148.528)" xlink:href="#a"/></defs><g data-name="Object" fill="#000000" class="color000 svgShape"><g data-name="Q And A Survey" fill="#000000" class="color000 svgShape"><path fill="#e5e4ff" d="M117.291,177.373c-19.4239-6.9023-42.6806,10.1342-70.631,2.972-11.7583-3.0045-19.3428-6.3664-23.7278-9.7445-4.0927-3.1669-5.3919-6.3338-4.6936-9.2734.9258-3.9628,5.4406-7.5032,11.6122-9.9393,11.5634-4.5962,16.8417-2.0139,26.0664-.5685a62.88209,62.88209,0,0,0,12.0994.7308,103.99271,103.99271,0,0,0,20.7557-3.1831s-.6821-5.5382,56.2092,12.7976C201.873,179.5005,136.7313,184.2753,117.291,177.373Z" class="colore5e4ff svgShape"/><path d="M68.0166,151.5501c-10.8164,4.4337-36.7042,15.1039-45.0844,19.0504-4.0927-3.1669-5.3919-6.3338-4.6936-9.2734l37.6786-10.5078A62.88209,62.88209,0,0,0,68.0166,151.5501Z" opacity=".1" fill="#000000" class="color000 svgShape"/><path fill="#e5e4ff" d="M186.9477,71.7268c-2.4686-24.1013-17.1665-84.452-75.8281-34.8527-28.7299,24.2962-61.2603-.2599-74.3178,28.4213-15.5911,34.2518,34.1868,80.3593,71.8005,80.3593C146.2321,145.6547,190.7968,109.1455,186.9477,71.7268ZM60.4971,80.2207A12.9683,12.9683,0,1,1,73.4735,67.2443,12.97875,12.97875,0,0,1,60.4971,80.2207Z" class="colore5e4ff svgShape"/><path fill="#d9b4ff" d="M151.7047,142.5916a16.8345,16.8345,0,0,0,.3414,6.9845c.7043,2.645,2.7153,5.4576,5.4567,5.2718,1.1975-.0748,2.4526-7.1126,2.3763-8.7721-.0658-1.1808-.3564-2.3589-.4056-3.5486a12.72242,12.72242,0,0,1,.6543-4.3782c1.0691-3.5685,5.6395-3.696,8.3634-6.2511,2.5712-2.419,3.0488-5.6471,3.9318-9.0615a2.78339,2.78339,0,0,0-1.91-.4883,3.15257,3.15257,0,0,0-1.7966.7207c-.9533.8475-1.0741.3636-1.9568,1.3022a18.291,18.291,0,0,1-3.9432,2.7493,24.86558,24.86558,0,0,0-9.1412,9.5011A19.7774,19.7774,0,0,0,151.7047,142.5916Z" class="colord9b4ff svgShape"/><path fill="url(#a)" style="mix-blend-mode:overlay" d="M151.7047,142.5916c.1399,0,.2669-.004.4069-.004a19.98562,19.98562,0,0,0,5.6648-1.0725,1.39163,1.39163,0,0,0,.6301-.3288,1.41287,1.41287,0,0,0,.3257-.8537c.069-.6507.0496-1.286.0635-1.9393a14.06963,14.06963,0,0,1,1.9161-7.0495,10.3084,10.3084,0,0,1,5.5918-4.5636,8.6057,8.6057,0,0,0,1.5476-.5434,4.3033,4.3033,0,0,0,1.2741-1.1711,8.79909,8.79909,0,0,0,1.3877-2.7176,3.15257,3.15257,0,0,0-1.7966.7207c-.9533.8475-1.0741.3636-1.9568,1.3022a18.291,18.291,0,0,1-3.9432,2.7493,24.86558,24.86558,0,0,0-9.1412,9.5011A19.7774,19.7774,0,0,0,151.7047,142.5916Z"/><path fill="#bf9aed" d="M146.3692,159.7934a3.66764,3.66764,0,0,0,.0329,2.178,9.65956,9.65956,0,0,0,4.1179,4.8848,6.80086,6.80086,0,0,0,6.2519.3763c1.7581-.8722,2.9652-2.5668,4.6603-3.5557,1.5283-.899,3.5155.0321,5.4487.863a11.325,11.325,0,0,0,2.8997.9667c2.5671.3495,3.3158-1.7762,3.8276-2.6441a3.3911,3.3911,0,0,0,.6151-2.7532,5.71431,5.71431,0,0,1-5.3092,1.6126c-2.8931-.475-3.9706-2.4345-6.3429-3.341-2.72-1.0527-6.8826-2.0062-9.6912-2.7637C149.87,154.7852,147.2897,156.9078,146.3692,159.7934Z" class="colorbf9aed svgShape"/><path fill="url(#b)" style="mix-blend-mode:overlay" d="M146.4021,161.9714a9.65956,9.65956,0,0,0,4.1179,4.8848,6.80086,6.80086,0,0,0,6.2519.3763c1.7581-.8722,2.9652-2.5668,4.6603-3.5557,1.5283-.899,3.5155.0321,5.4487.863a7.95749,7.95749,0,0,0-3.4421-2.7517,9.58141,9.58141,0,0,0-5.7678.2023,24.15543,24.15543,0,0,1-5.6918,1.3022A13.06775,13.06775,0,0,1,146.4021,161.9714Z"/><path fill="#b06cb2" d="M147.4452,155.952c-.2594,1.46-.5143,2.9052-.8138,4.337-.2179,1.0516-1.1692,6.9821,1.0749,7.0556a2.1373,2.1373,0,0,0,.4737-.0686c1.5518-.4253.5921-5.3259.9972-6.5156a7.31088,7.31088,0,0,1,4.5473-4.481c3.8268-1.2653,7.8747.8377,11.858,1.4808a11.8163,11.8163,0,0,0,6.7424-.7317,7.209,7.209,0,0,0,4.1387-5.1699,1.45477,1.45477,0,0,0-.0924-.9341c-.2794-.4721-.9329-.506-1.4675-.5044a7.5224,7.5224,0,0,1-4.4588-.9473c-1.2583-.8788-1.9258-2.8108-.9371-4.0037.9262-1.1469,2.6817-1.0094,4.158-1.0203,2.1238-.0112,4.5383-.777,5.3262-2.7585,1.2256-3.0643-2.3176-6.4729-1.2659-9.6054.7507-2.2354,3.3642-3.0711,5.4089-4.2229a12.799,12.799,0,0,0,6.3439-9.883,2.11346,2.11346,0,0,0-.7329-2.1457,1.69151,1.69151,0,0,0-1.0976-.1185,3.44546,3.44546,0,0,0-1.1122.3628,6.96894,6.96894,0,0,0-2.7214,2.6,33.72227,33.72227,0,0,1-2.7074,4.1743,7.89738,7.89738,0,0,1-7.7784,2.2989c-1.0189-.2729-2.1033-.7597-3.0774-.3716a2.75671,2.75671,0,0,0-1.253,1.2108,5.56576,5.56576,0,0,0-.3339.6284,17.94969,17.94969,0,0,0-1.4599,4.2243c-.3573,1.6249-.5423,3.4309-1.7017,4.6536-1.2827,1.3638-3.3618,1.5502-5.1825,2.0083a14.94213,14.94213,0,0,0-7.9259,5.0064C149.3307,146.2547,148.3463,151.1071,147.4452,155.952Z" class="colorb06cb2 svgShape"/><path fill="url(#c)" style="mix-blend-mode:overlay" d="M147.4452,155.952a22.65134,22.65134,0,0,1,6.3411-5.3355c2.5376-1.5544,5.3811-3.0495,6.5786-5.7499.5683-1.3028.7044-2.7835,1.457-3.9986,1.508-2.4941,4.9801-3.0078,7.066-5.0537a7.08918,7.08918,0,0,0,1.6608-6.9481,8.00143,8.00143,0,0,0-1.5501-2.8762,5.56576,5.56576,0,0,0-.3339.6284,17.94969,17.94969,0,0,0-1.4599,4.2243c-.3573,1.6249-.5423,3.4309-1.7017,4.6536-1.2827,1.3638-3.3618,1.5502-5.1825,2.0083a14.94213,14.94213,0,0,0-7.9259,5.0064C149.3307,146.2547,148.3463,151.1071,147.4452,155.952Z"/><path fill="url(#d)" style="mix-blend-mode:overlay" d="M147.5987,165.5966a8.06792,8.06792,0,0,0,.1076,1.748,2.1373,2.1373,0,0,0,.4737-.0686c1.5518-.4253.5921-5.3259.9972-6.5156a7.31088,7.31088,0,0,1,4.5473-4.481c3.8268-1.2653,7.8747.8377,11.858,1.4808a11.8163,11.8163,0,0,0,6.7424-.7317,7.209,7.209,0,0,0,4.1387-5.1699,1.45477,1.45477,0,0,0-.0924-.9341c-.2794-.4721-.9329-.506-1.4675-.5044a7.5224,7.5224,0,0,1-4.4588-.9473c-1.2583-.8788-1.9258-2.8108-.9371-4.0037.9262-1.1469,2.6817-1.0094,4.158-1.0203,2.1238-.0112,4.5383-.777,5.3262-2.7585,1.2256-3.0643-2.3176-6.4729-1.2659-9.6054.7507-2.2354,3.3642-3.0711,5.4089-4.2229a12.799,12.799,0,0,0,6.3439-9.883,2.11346,2.11346,0,0,0-.7329-2.1457,1.69151,1.69151,0,0,0-1.0976-.1185,3.44546,3.44546,0,0,0-1.1122.3628c-.0368,1.0411.4373,2.1058.0324,3.2955a4.4603,4.4603,0,0,1-.9946,1.4826c-2.6291,2.8866-5.3296,5.849-8.764,7.7498-1.4759.8204-3.2088,1.5799-3.8083,3.1484-.9273,2.3929,1.2926,5.3565-.0878,7.5328-1.0435,1.6459-3.4717,1.6468-5.1064,2.7271a4.33762,4.33762,0,0,0-1.7538,4.5571c.3911,1.5578,1.672,3.1716.921,4.5977a3.11071,3.11071,0,0,1-2.7515,1.2961c-2.9065.0842-5.8921-1.2959-8.6244-.334-2.3047.8311-3.7415,3.0875-4.9467,5.2192C149.1857,159.9212,147.7238,162.6396,147.5987,165.5966Z"/><path fill="#b06cb2" d="M74.807,63.0644a1.86788,1.86788,0,0,1-.8681-.2408,3.32289,3.32289,0,1,0-.038-2.604,2.57559,2.57559,0,0,1,.5069.4561,2.70116,2.70116,0,1,1,.3992,2.3887Z" class="colorb06cb2 svgShape"/><path fill="#bf9aed" d="M66.5301,62.4308a1.60222,1.60222,0,0,0,1.2907-.7487c.2735-.331.4455-.5185.8019-.5185s.5284.1875.8019.5185a1.4851,1.4851,0,0,0,2.5795-.0003c.2728-.331.4442-.5182.8-.5182s.5272.1872.8.5182a1.4834,1.4834,0,0,0,2.5777,0c.2729-.331.4442-.5182.7994-.5182V60.53a1.59853,1.59853,0,0,0-1.2882.7487c-.2729.3313-.4443.5185-.8.5185s-.5272-.1872-.8001-.5182a1.48332,1.48332,0,0,0-2.5776,0c-.2729.331-.4443.5182-.8001.5182-.3563,0-.5284-.1875-.8018-.5185a1.48688,1.48688,0,0,0-2.5814,0c-.2735.331-.4455.5185-.8019.5185Z" class="colorbf9aed svgShape"/><rect width=".435" height=".869" x="74.996" y="65.703" fill="#fcc56b" class="colorfcc56b svgShape"/><path fill="#fcc56b" d="M71.6641 65.7026h.5552v.8693h-.5552zm1.1112 0h1.6655v.8693H72.7753zM66.1115 65.7026h.5552v.8693h-.5552zm1.1104 0h1.6664v.8693H67.2219zm2.2215 0h.5552v.8693h-.5552z" class="colorfcc56b svgShape"/><rect width=".435" height=".869" x="64.01" y="65.703" fill="#fcc56b" class="colorfcc56b svgShape"/><rect width=".869" height=".869" x="72.12" y="56.8" fill="#fcc56b" class="colorfcc56b svgShape"/><path fill="#fcc56b" d="M68.645,56.8004h1.3235v.8692H68.645Zm1.6545,0h.4966v.8692h-.4966Z" class="colorfcc56b svgShape"/><rect width=".869" height=".869" x="67.279" y="56.8" fill="#fcc56b" class="colorfcc56b svgShape"/><polygon fill="#837dff" points="163.626 63.103 158.429 96.445 147.353 167.417 98.111 158.063 74.545 153.58 82.422 110.899 85.118 96.299 85.898 92.044 92.735 54.966 130.235 59.27 163.626 63.103" class="color837dff svgShape"/><polygon fill="#bdbdff" points="142.116 126.631 117.701 122.68 119.143 114.205 143.502 117.993 142.116 126.631" class="colorbdbdff svgShape"/><polygon fill="#bdbdff" points="139.688 135.013 117.293 131.249 118.281 125.426 140.642 129.087 139.688 135.013" class="colorbdbdff svgShape"/><polygon fill="#bdbdff" points="145.75 156.849 93.162 147.233 95.733 132.772 148.12 141.775 145.75 156.849" class="colorbdbdff svgShape"/><path fill="url(#e)" style="mix-blend-mode:overlay" d="M158.4239,96.4404l-11.0711,70.9789-49.2383-9.3626a58.25262,58.25262,0,0,1-7.2869-8.916,14.153,14.153,0,0,1-2.731-6.3069c-.2233-2.3168.7818-4.934,2.8541-5.8547,3.112-1.4085,6.3956,1.4738,9.7956,1.8158a13.29141,13.29141,0,0,0,4.793-.6813c7.9186-2.1086,16.5437-4.6569,21.5123-11.3968,3.5106-4.7643,4.5789-10.8474,7.3735-16.0393a28.61128,28.61128,0,0,1,13.6208-12.4628A19.95475,19.95475,0,0,1,158.4239,96.4404Z"/><path fill="url(#f)" style="mix-blend-mode:overlay" d="M130.8917,70.7851c-.9628,4.8-3.9363,9.7694-8.7316,11.1301-6.9597,1.993-13.5845-4.4069-20.5525-3.1763-4.1682.7288-7.4858,4.0455-10.2617,7.3274a56.76425,56.76425,0,0,1-5.4599,5.9983l6.8452-37.1005,37.505,4.3055A23.11257,23.11257,0,0,1,130.8917,70.7851Z"/><path fill="#efbf6c" d="M102.3658,109.3404a6.51257,6.51257,0,0,0-1.1206-.0812,6.24945,6.24945,0,0,0-6.0741,5.4731,6.02773,6.02773,0,0,0,3.8004,7.0972h.0162a7.52806,7.52806,0,0,0,1.1206.2761,6.26609,6.26609,0,0,0,7.3408-5.4244C108.0175,112.9458,106.0687,109.9088,102.3658,109.3404Zm18.417-27.1384c-.9582-3.9951-4.4824-7.2758-11.2061-8.1365-.406-.0488-.8121-.0976-1.2018-.1137a23.44967,23.44967,0,0,0-10.5403,1.4453l-.8932,5.3433-.3411,2.0464,2.1762.2923a13.44017,13.44017,0,0,1,5.7006-1.2343,8.92978,8.92978,0,0,1,1.348.0974c3.3781.5847,4.6611,2.3712,4.2388,4.7748-.406,2.3387-2.566,4.3038-5.2132,6.61-3.7192,3.2806-5.5219,6.7075-5.9442,10.2642l-.2598,1.8189,6.8698,1.0394,2.2412.3411.2112-1.2668c.4872-3.1507,1.9975-5.7005,5.0346-8.1854,3.1344-2.5498,6.9997-5.5705,7.893-10.8325A10.35349,10.35349,0,0,0,120.7828,82.202Z" class="colorefbf6c svgShape"/><path fill="#ffd581" d="M101.2452,109.2592a7.331,7.331,0,0,0-1.1044-.2599,6.21779,6.21779,0,0,0-7.1784,5.3919c-.6497,3.6218,1.2992,6.7563,4.9209,7.3409a6.16817,6.16817,0,0,0,1.0882.0974h.0162a6.21718,6.21718,0,0,0,6.204-5.5056C105.7114,112.9783,104.2172,110.2174,101.2452,109.2592Zm17.3776-26.9921c-.7958-3.9465-4.0115-7.2597-10.2479-8.3153-.3249-.065-.6659-.1137-1.0069-.1625a23.78113,23.78113,0,0,0-11.7097,1.3318l.7309,5.9928.2111,1.6729a13.11754,13.11754,0,0,1,7.016-1.1369,6.11722,6.11722,0,0,1,.8608.1949c2.7284.7146,3.7678,2.3873,3.3781,4.5799-.4223,2.3224-2.5824,4.2876-5.2134,6.5937-3.7191,3.2806-5.5055,6.6912-5.944,10.248l-.2437,1.8027,2.1926.341,6.8698,1.0394.2274-1.2667c.4709-3.1345,1.9813-5.7006,5.0183-8.1692,3.1346-2.5497,6.9836-5.5543,7.8931-10.8163A10.6498,10.6498,0,0,0,118.6228,82.2671Z" class="colorffd581 svgShape"/><path d="M146.5773,71.177a15.40015,15.40015,0,0,0-2.8479-1.9605c-4.3275-2.292-9.0831-2.04-11.5199,1.0084a7.1395,7.1395,0,0,0-1.4273,5.1394l-6.9685,4.0569,8.5598.7916a14.19736,14.19736,0,0,0,2.0569,2.7294,12.96177,12.96177,0,0,0,1.5397,1.4364c4.8722,3.9433,11.0718,4.193,13.9563.6284C152.8042,81.4505,151.3485,75.3004,146.5773,71.177Z" opacity=".1" fill="#000000" class="color000 svgShape"/><path fill="#bdbdff" d="M123.8138,79.4212l8.6281-.3964a14.253,14.253,0,0,0,2.4325,2.4047,13.05881,13.05881,0,0,0,1.7348,1.2028c5.404,3.2131,11.5977,2.6048,13.9502-1.3003,2.3448-3.8924.0209-9.7358-5.2984-13.1339a15.58539,15.58539,0,0,0-3.1038-1.5365c-4.6193-1.6609-9.3042-.7661-11.2931,2.5613a7.00882,7.00882,0,0,0-.6912,5.2486Z" class="colorbdbdff svgShape"/><path fill="#edb25d" d="M139.311 74.0306a2.07094 2.07094 0 00.4612 2.8535 2.01562 2.01562 0 002.6998-.9067 2.07526 2.07526 0 00-.4492-2.8483A2.01219 2.01219 0 00139.311 74.0306zM143.4357 76.5709a2.0435 2.0435 0 00.441 2.8176 1.99332 1.99332 0 002.6627-.9061 2.04768 2.04768 0 00-.4292-2.8125A1.99 1.99 0 00143.4357 76.5709zM138.3293 73.4261a2.03816 2.03816 0 01-2.7376.9071 2.09922 2.09922 0 01-.4822-2.8902 2.03495 2.03495 0 012.75-.9018A2.10333 2.10333 0 01138.3293 73.4261z" class="coloredb25d svgShape"/><path fill="url(#g)" style="mix-blend-mode:overlay" d="M123.8138,79.4212l8.6281-.3964a14.253,14.253,0,0,0,2.4325,2.4047,3.37546,3.37546,0,0,1,1.6038-2.8236c1.1028-.6032,2.4373-.3428,3.6768-.2378,1.2512.1105,2.7424-.0665,3.3958-1.128a2.80742,2.80742,0,0,0-.3357-2.9878,23.64576,23.64576,0,0,1-1.8548-2.5489,4.84963,4.84963,0,0,1,.7969-5.0418c-4.6193-1.6609-9.3042-.7661-11.2931,2.5613a7.00882,7.00882,0,0,0-.6912,5.2486Z"/><path d="M94.0668,97.1436l-.0812-.0163-8.8675-.8283-2.6959,14.6005a14.04123,14.04123,0,0,0,4.0439-2.9395l8.3478-8.835a1.26416,1.26416,0,0,0,.211-.3736A1.18557,1.18557,0,0,0,94.0668,97.1436Z" opacity=".1" fill="#000000" class="color000 svgShape"/><path fill="#edb6a4" d="M53.1139,76.1774l5.6938,9.4411L68.9523,92.735l-1.3341,2.3296q-7.4484-3.3606-10.1941-5.5448a26.11408,26.11408,0,0,1-3.5255-3.1084,28.03189,28.03189,0,0,1-3.4068-4.359Q48.32,78.447,49.0994,77.2781a1.44092,1.44092,0,0,1,.4172-.4608,2.56888,2.56888,0,0,1,.9646-.4089,13.51921,13.51921,0,0,1,2.6327-.231" class="coloredb6a4 svgShape"/><path fill="#ffb31b" d="M50.6417,75.2633a6.25053,6.25053,0,0,0-1.895.8226,5.225,5.225,0,0,0-1.0716.2417,1.12927,1.12927,0,0,0-.5019.3476c-.2857.4307-.2133,1.0525.2067,1.8557.0985.1889.2075.3875.3287.5897.0934.1607.1867.3214.2923.4857a33.55647,33.55647,0,0,0,2.1344,3.0048,58.381,58.381,0,0,0,4.396,5.0925,8.68255,8.68255,0,0,0,2.675,1.9743l.5358-.6247,2.3125-2.6899L57.475,83.1685c-1.0841-2.0513-2.0243-3.6803-2.8066-4.8894a9.29189,9.29189,0,0,0-1.9763-2.4249A2.42362,2.42362,0,0,0,50.6417,75.2633Z" class="colorffb31b svgShape"/><path fill="#edb6a4" d="M68.6251,92.6546l.0222-.0004a3.18425,3.18425,0,0,1,1.5671.5859,4.46,4.46,0,0,1,1.4477,1.3438,3.22516,3.22516,0,0,1,.3591,1.0045,8.45778,8.45778,0,0,1,.1311,1.2479,5.47249,5.47249,0,0,1-.0632,1.1551q-.0615.2916-.2729.3168a.31883.31883,0,0,1-.1402-.0318.87531.87531,0,0,1-.2174-.1475q-.44445-.4119-1.3506-1.3429a5.33709,5.33709,0,0,0-.4731-.4114,3.33758,3.33758,0,0,0-.6364-.356l-1.0023-.3995a2.86863,2.86863,0,0,1-.2772-.1277.9593.9593,0,0,1-.3674-.3022,1.44611,1.44611,0,0,1,.1113-1.3098,4.21305,4.21305,0,0,1,.6138-.9019,1.019,1.019,0,0,1,.5484-.3229" class="coloredb6a4 svgShape"/><path d="M50.0716,79.0284c-.5582.5181-1.4361.2556-2.1835.1178a1.71558,1.71558,0,0,0-.1795-.0256,10.54177,10.54177,0,0,0-2.7094.0446,29.883,29.883,0,0,0,3.0017.4411,33.55647,33.55647,0,0,0,2.1344,3.0048,58.381,58.381,0,0,0,4.396,5.0925,8.68255,8.68255,0,0,0,2.675,1.9743l.5358-.6247c.0237-.6538-.7816-.8218-1.3094-1.0491a9.63442,9.63442,0,0,1-3.6614-3.5367c-.5207-.7325-1.0316-1.4754-1.5285-2.2209a6.28909,6.28909,0,0,1-1.166-2.5491A2.74121,2.74121,0,0,1,50.0716,79.0284Z" opacity=".1" fill="#000000" class="color000 svgShape"/><path fill="#6927ff" d="M61.2165,87.1375l-.1006.1545a16.63253,16.63253,0,0,1-1.1601,1.6282,15.80661,15.80661,0,0,1-1.4792,1.4986,3.25,3.25,0,0,1-.8479-.1037.55157.55157,0,0,1-.3898-.3268l-.0288-.1397.0056-.1688a1.57406,1.57406,0,0,1,.0751-.2992,5.94046,5.94046,0,0,1,.6432-1.1916l.2311-.335q.24225-.3384.5053-.6585t.5232-.5902a3.16218,3.16218,0,0,1,.912-.7218.64661.64661,0,0,1,.3276-.0571l.1345.038a.60481.60481,0,0,1,.2208.1853,1.65045,1.65045,0,0,1,.2422.4798q.03795.0855.1858.608" class="color6927ff svgShape"/><path fill="#edb6a4" d="M31.6138,133.8539a1.69561,1.69561,0,0,1-.6734-.066,3.27536,3.27536,0,0,1-.663-.2751,5.65583,5.65583,0,0,1-.5763-.3728l-1.3806-1.0417-.3091-.195-1.2969-.7779-.317-.207a4.53248,4.53248,0,0,1-.8278-.7048,2.53117,2.53117,0,0,1-.3855-.5732l-.1284-.3269a.57709.57709,0,0,1,.2566-.644,2.52967,2.52967,0,0,1,.3915-.2392c.5017-.2119.8646-.3639,1.0874-.4788a1.88634,1.88634,0,0,0,.2587-.1385l.0032-.0056a1.42541,1.42541,0,0,0,.379-.3576l.5125-.7397a2.80255,2.80255,0,0,1,.224-.2699,1.06746,1.06746,0,0,1,.5529-.3379l.012-.0079a4.287,4.287,0,0,1,1.5683.1722q.69885.25155.8099.6721a.73149.73149,0,0,1-.0878.6089,6.93888,6.93888,0,0,1-.6823.8781,1.63716,1.63716,0,0,0-.1829.3013,1.55572,1.55572,0,0,0-.1269.816c.0074.0636.0148.1273.0277.1942a3.10416,3.10416,0,0,0,.1392.5631c.0263.0821.0614.1618.0933.2472l.0055.0032a3.26806,3.26806,0,0,0,.1699.3957,2.62044,2.62044,0,0,1,.1196.2402c.0587.1158.1219.249.1985.3975.0361.0655.0688.1365.1095.2195l.0305.0623.0055.0032c.1251.2435.2627.5165.4238.8254q.12195.249.2411.5409C31.7253,133.5481,31.7323,133.7524,31.6138,133.8539Z" class="coloredb6a4 svgShape"/><path fill="#2b3bc2" d="M32.8183,134.1033l-.1587.1449c-.4523.2037-1.5959-.0992-3.4353-.9262a16.21692,16.21692,0,0,1-4.0349-2.5068l-.3078-.3499-.1976-.3228-.0928-.2988a.90052.90052,0,0,1,.0777-.5406l.1507-.246a2.24461,2.24461,0,0,1,.4679-.4467,7.11382,7.11382,0,0,1,.9868-.6116l.3601-.1981c.0512.0521.108.1074.1569.1508.0567.0553.1025.1042.1569.1507.3249.308.5851.5486.7785.7132a5.08739,5.08739,0,0,0,.8739.613,2.96291,2.96291,0,0,0,1.459.3088c.0923-.0056.1901-.008.2823-.0136.1164.1568.2225.2928.3231.4256.0582.0784.1108.1536.1611.22.1084.1447.2036.2743.2908.3919.0503.0664.0951.1295.1375.184a.15645.15645,0,0,1,.0259.0447c.1486.1904.2405.3255.2908.3919a.77043.77043,0,0,1,.0447.0631c.0471.072.0974.1384.1422.2015.1759.2582.3351.5068.4865.7433l.2585.4473a3.3888,3.3888,0,0,1,.3307.7563l.0389.2896Z" class="color2b3bc2 svgShape"/><path fill="#7783e5" d="M29.9346 130.3904h0l.9989-.3319a.13245.13245 0 11.0835.2514h0l-.9988.332a.13252.13252 0 01-.0836-.2515zM31.2803 130.9898l-.0526.0138-.6406.183-.2836.0795a.1338.1338 0 01-.0726-.2574l.2366-.0623.6494-.1853.0964-.0254a.11859.11859 0 01.1448.0695.03343.03343 0 01.0157.024A.1315.1315 0 0131.2803 130.9898zM31.758 131.6463a.11839.11839 0 01-.0664.0504l-.6249.2069a.1124.1124 0 01-.1356-.0345l-.0055-.0032a.10275.10275 0 01-.0259-.0448l-.0046-.0175a.13529.13529 0 01.0871-.1495l.6249-.2069.0087-.0024a.12426.12426 0 01.1583.0848A.12185.12185 0 0131.758 131.6463z" class="color7783e5 svgShape"/><path fill="#aa78ea" d="M39.5275,117.3955c-.2466.3977-.9592,1.3916-2.153,2.995-.2701.3617-.5684.759-.8882,1.1808q-1.55775,2.0625-5.4228,6.7484l-3.4295-2.1836,8.2926-16.0524q.79155-5.2344,1.8133-9.7562a28.55179,28.55179,0,0,1,1.2106-3.9743,12.9598,12.9598,0,0,1,1.0031-2.078,5.51363,5.51363,0,0,1,4.1452-2.8502,16.96531,16.96531,0,0,1,6.2.7127l-.5005,1.6737q-.5388,1.8219-1.1108,3.6245l-.1519.4899c-.2726.8498-.5421,1.694-.8258,2.5373q-1.09005,3.30285-2.4183,6.467-1.3974,3.12375-1.9614,4.2191c-.0977.1804-.1728.322-.2364.4184A60.81033,60.81033,0,0,1,39.5275,117.3955Z" class="coloraa78ea svgShape"/><path d="M39.5275 117.3955c-.2466.3977-.9592 1.3916-2.153 2.995a4.027 4.027 0 01-.467-1.3623 4.96107 4.96107 0 01.2425-2.9364c.6013-1.2738 1.9215-2.0249 2.8098-3.1167a10.59417 10.59417 0 001.5008-2.9449c.8185-2.1558.6105-4.9617.6116-7.2675-.0023-1.0396-.0722-2.8713-.0086-3.9096a1.76315 1.76315 0 01.9157-1.784c.682-.5594 2.8173-.3609 3.6909-.2821.4114.0321 1.8474.1643 2.0173.6489a.08563.08563 0 01.0194.0558.73618.73618 0 01-.1713.4341 14.59292 14.59292 0 00-1.1488 1.3479 11.56368 11.56368 0 00-.6035 2.2959c-.6503 2.9362-2.1789 5.5979-3.1171 8.4554-.1215.3741-.2343.7459-.3361 1.1242-.0977.1804-.1728.322-.2364.4184A60.81033 60.81033 0 0139.5275 117.3955zM32.8183 134.1033l-.1587.1449c-.4523.2037-1.5959-.0992-3.4353-.9262a16.21692 16.21692 0 01-4.0349-2.5068l-.3078-.3499-.1976-.3228-.0928-.2988a.90052.90052 0 01.0777-.5406l.1507-.246a2.24461 2.24461 0 01.4679-.4467 7.11382 7.11382 0 01.9868-.6116l.3601-.1981c.0512.0521.108.1074.1569.1508a1.88634 1.88634 0 00.2587-.1385 1.31766 1.31766 0 01-.1018.2892 1.44492 1.44492 0 01-.2475.4121 2.90549 2.90549 0 00-.4938.491 1.16244 1.16244 0 00.3499 1.3088 5.48281 5.48281 0 002.9914 1.3573 1.93266 1.93266 0 001.2374-.0873.779.779 0 00.2725-.264c.0636-.0964.1115-.2168.1696-.3165a.23935.23935 0 01.0267-.0585.49735.49735 0 01.1037-.1399.03343.03343 0 01.0157.024.1315.1315 0 01-.0935.1606c.1486.1904.2405.3255.2908.3919a.77043.77043 0 01.0447.0631.12426.12426 0 01.1583.0848.12185.12185 0 01-.0161.1167c.1759.2582.3351.5068.4865.7433l.2585.4473a3.3888 3.3888 0 01.3307.7563l.0389.2896z" opacity=".1" fill="#000000" class="color000 svgShape"/><path fill="#d5b0ff" d="M96.0468,93.7459a1.52961,1.52961,0,0,1-.2235.3697l-8.3461,8.8288a14.412,14.412,0,0,1-5.2955,3.5036L20.6991,129.5791c-8.5649,3.2258-13.92731-9.3596-7.0875-13.8025a8.99377,8.99377,0,0,1,1.5905-.7969l8.5109-3.2066L76.6848,91.8485a13.983,13.983,0,0,1,6.3001-.8463l12.0108,1.1223.0808.0039A1.19824,1.19824,0,0,1,96.0468,93.7459Z" class="colord5b0ff svgShape"/><path fill="url(#h)" style="mix-blend-mode:overlay" d="M96.0468,93.7459a1.52961,1.52961,0,0,1-.2235.3697l-8.3461,8.8288a14.412,14.412,0,0,1-5.2955,3.5036L20.6991,129.5791c-8.5649,3.2258-13.92731-9.3596-7.0875-13.8025a8.99377,8.99377,0,0,1,1.5905-.7969l8.5109-3.2066c.5927,2.9961-2.4309,6.5769-.8138,9.3382,4.0741.7246,8.1985-.6496,12.1189-1.9929q17.6418-6.0453,35.2913-12.1215a24.898,24.898,0,0,0,5.9114-2.6293c1.3634-.9355,2.5343-2.1484,3.836-3.1648a36.72653,36.72653,0,0,1,9.2775-4.8315c2.0218-.82,4.2517-2.1444,6.3736-2.5792A2.62928,2.62928,0,0,1,96.0468,93.7459Z"/><path fill="#edb6a4" d="M41.9805,125.3998a.72807.72807,0,0,1-.2994.5352,6.252,6.252,0,0,1-.9559.5693,1.5856,1.5856,0,0,0-.2816.2153,1.56227,1.56227,0,0,0-.4121.7151c-.0163.0632-.0327.1265-.0427.1901a2.53141,2.53141,0,0,0-.0772.5797,1.826,1.826,0,0,0-.0018.2631c-.0029.0512.0021.1926.0208.4311a2.64218,2.64218,0,0,1,.0174.2641c.0216.1873.0408.4194.071.6843-.0015.0256.0035.0515.0021.0771l.006.0068c.0238.2644.0522.5612.0848.8967-.0003.0064.0057.0132.005.026.0156.1806.0237.38.0247.5918.0135.3345-.0551.5296-.2052.5726a1.59916,1.59916,0,0,1-.6056-.3033,3.36141,3.36141,0,0,1-.5114-.497,4.93955,4.93955,0,0,1-.4118-.5557l-.9065-1.4688-.2082-.294-.9279-1.2005-.2203-.3075a4.26436,4.26436,0,0,1-.5116-.9527,2.54488,2.54488,0,0,1-.1549-.6761l.0005-.353a.56378.56378,0,0,1,.4711-.5064,2.19616,2.19616,0,0,1,.4535-.0774c.5399-.0148.9387-.0311,1.19-.0491a1.2577,1.2577,0,0,0,.2912-.0416,1.5322,1.5322,0,0,0,.4859-.1975l.7469-.5039c.0067-.006.0199-.0117.0266-.0178a2.43717,2.43717,0,0,1,.2844-.151,1.02041,1.02041,0,0,1,.6288-.1125l.0192.0011a4.09713,4.09713,0,0,1,1.3971.7261A1.11834,1.11834,0,0,1,41.9805,125.3998Z" class="coloredb6a4 svgShape"/><path fill="#2b3bc2" d="M41.1638,132.2213l-.0609.2854-.1326.1916-.203.0721c-.4958.0301-1.4511-.6778-2.8602-2.1105a15.80929,15.80929,0,0,1-2.8492-3.8042l-.162-.4325-.0625-.3758.0175-.3135a.90593.90593,0,0,1,.2702-.4727l.2282-.1798a2.29058,2.29058,0,0,1,.604-.2423,7.1312,7.1312,0,0,1,1.1414-.2123l.4073-.0543c.0345.0725.0629.1383.0913.2041s.0572.1251.086.1844c.1887.4149.3443.7316.4665.9566a5.33723,5.33723,0,0,0,.592.893,2.92581,2.92581,0,0,0,1.251.8142l.2645.0918q.0714.27345.1449.5087c.0206.0909.0476.1823.0749.2673.0416.1756.0906.3323.1279.4692.0266.0977.0472.1887.0682.2733.0639.2346.1066.391.1214.4689a.33713.33713,0,0,1,.015.0778l.0064.0004c.0209.0846.0359.1624.0572.2406.0728.3057.1338.5915.1828.8638l.087.5119A3.65645,3.65645,0,0,1,41.1638,132.2213Z" class="color2b3bc2 svgShape"/><path fill="#7783e5" d="M39.6314 128.1869h0l1.0512.0542a.13247.13247 0 11-.0136.2646h0l-1.0512-.0542a.13247.13247 0 01.0136-.2646zM39.6845 128.8719h0l1.009.1011a.13246.13246 0 11-.0264.2636h0l-1.009-.1011a.13246.13246 0 11.0264-.2636zM40.9328 129.9173a.12585.12585 0 01-.0636.1055.10231.10231 0 01-.0782.0213l-.4802-.0203-.1792-.01a.11185.11185 0 01-.1045-.0828l-.006-.0068a.14858.14858 0 01-.0099-.0519.03778.03778 0 01.0078-.0252.12444.12444 0 01.1276-.102l.6654.0371A.12838.12838 0 0140.9328 129.9173z" class="color7783e5 svgShape"/><path fill="#bf81ff" d="M57.4608,106.8554l-.1546,1.6215-.397,1.5951-.6202,1.5699a18.73693,18.73693,0,0,1-1.8453,3.0547,52.69079,52.69079,0,0,1-8.8509,8.761l-3.5023,2.8468-2.7478-2.8615,7.3959-10.1771,3.7257-5.1254q-5.8863-7.3461-7.6182-11.0462a10.59846,10.59846,0,0,1-.7237-1.9849l-.1491-.894a3.98474,3.98474,0,0,1,.8337-2.8672q.44925-.9762,3.3406-2.4771c.7338-.3827,1.5908-.7906,2.5584-1.2244q5.6127,8.1105,7.3094,12.4409a21.09308,21.09308,0,0,1,1.0923,3.4302l.2852,1.6781Z" class="colorbf81ff svgShape"/><path d="M51.3388 107.7656a1.47592 1.47592 0 01-.272.6201 20.09522 20.09522 0 01-4.3282 4.8801l3.7257-5.1254q-5.8863-7.3461-7.6182-11.0462a10.59846 10.59846 0 01-.7237-1.9849l-.1491-.894a3.98474 3.98474 0 01.8337-2.8672q.44925-.9762 3.3406-2.4771c.5477.422 1.068.8745 1.5818 1.3268.6607.5823 2.1157 1.7673 2.0202 2.7888-.0933.9832-1.8397 1.5725-2.6424 1.8101a7.84628 7.84628 0 00-1.6344.5379 1.55181 1.55181 0 00-.8846 1.3625 1.647 1.647 0 00.9335 1.2137c.467.2571.9916.4019 1.4519.665 1.2379.7043 1.8315 2.1429 2.3346 3.4802.6267 1.6522 1.253 3.3109 1.8797 4.9631A1.60047 1.60047 0 0151.3388 107.7656zM41.1638 132.2213l-.0609.2854-.1326.1916-.203.0721c-.4958.0301-1.4511-.6778-2.8602-2.1105a15.80929 15.80929 0 01-2.8492-3.8042l-.162-.4325-.0625-.3758.0175-.3135a.90593.90593 0 01.2702-.4727l.2282-.1798a2.29058 2.29058 0 01.604-.2423 7.1312 7.1312 0 011.1414-.2123l.4073-.0543c.0345.0725.0629.1383.0913.2041a1.2577 1.2577 0 00.2912-.0416 1.5322 1.5322 0 00.4859-.1975l.7469-.5039c.0067-.006.0199-.0117.0266-.0178a.7861.7861 0 01-.2695.5754 1.16285 1.16285 0 01-.3679.1528c-.2798.0679-.5535.1424-.8272.217-.1109.0324-.2278.0579-.3387.0903a1.26527 1.26527 0 00-.9044.5656c-.1771.4138.1253.8606.3207 1.2694.1379.2901.2228.6093.3343.9107a6.64286 6.64286 0 002.0763 2.9332 1.39491 1.39491 0 00.7748.3769.16323.16323 0 00.1102-.0195c.0533-.0356.058-.1187.0615-.1827l.0029-.0512c.0007-.0128-.0053-.0196-.005-.026a1.96658 1.96658 0 01.1771-.7602c.0072-.0124.0146-.0313.0218-.0437a.6827.6827 0 01.1813-.2595.37318.37318 0 01.171-.0739.28891.28891 0 01.1275.0136.33713.33713 0 01.015.0778l.0064.0004a.12838.12838 0 01.1208.1351.12585.12585 0 01-.0636.1055c.0728.3057.1338.5915.1828.8638l.087.5119A3.65645 3.65645 0 0141.1638 132.2213z" opacity=".1" fill="#000000" class="color000 svgShape"/><path fill="#6927ff" d="M71.5307,71.4084c-1.2595.9122-2.5249,1.8222-3.7844,2.7344q-.3828.27585-.7656.5518c-.4268.3106-.8514.6151-1.2782.9257l-.4212-.6405-.4235-.6344,5.7734-4.2121Z" class="color6927ff svgShape"/><path d="M67.7463,74.1428c-.2552.1839-.786.5679-1.0412.7519.0099-.0442.037-.2458.0409-.2923a2.11917,2.11917,0,0,0-.0692-.5172,1.48578,1.48578,0,0,1,.3059-.948c.1734-.102.5749.8171.7152.9529A.29749.29749,0,0,1,67.7463,74.1428Z" opacity=".1" fill="#000000" class="color000 svgShape"/><path fill="#ffb31b" d="M53.6354,98.0303c-.2392-.002-.4785-.004-.7117-.0037q-5.8845-.0507-8.5578-.3592c-.4543-.0496-.8432-.1086-1.1549-.1724-.2863-.0405-.5657-.099-.8428-.1634a10.55051,10.55051,0,0,1-3.9277-1.8938l-.2011-.1382q2.20455-6.6789,4.5789-12.2373.3336-.7677.6826-1.4679a29.81849,29.81849,0,0,1,1.459-2.6602,18.59655,18.59655,0,0,1,1.1795-1.7107c.0302-.0433.0582-.0807.0861-.118l.9196-1.028.9626-.799a6.34137,6.34137,0,0,1,.9041-.5196,4.048,4.048,0,0,1,1.0285-.3419c.1104-.0197.2313-.0491.3605-.0822A6.74465,6.74465,0,0,1,55.4844,75.75,6.13263,6.13263,0,0,1,58.05,79.8335a3.969,3.969,0,0,1,.0095.6413l-.0978.7787c-.0131.0705-.0299.1326-.049.2008a7.99385,7.99385,0,0,1-.4405,1.3544c-.2224.5119-.4756,1.0326-.761,1.5478-.3701.6476-.6752,1.1965-.9272,1.6422-.1272.2259-.2369.4241-.3353.5923a.09369.09369,0,0,1-.022.0396,6.52234,6.52234,0,0,0-.4416.8535,12.844,12.844,0,0,0-.9221,2.3847q-.8031,2.37855-.4339,8.0699C53.632,97.9672,53.6326,98.0017,53.6354,98.0303Z" class="colorffb31b svgShape"/><path fill="#edb6a4" d="M54.1782,77.5529l6.8923,7.0961,6.8186-9.9427,2.3146.1336a66.26531,66.26531,0,0,1-4.595,10.9253,13.57792,13.57792,0,0,1-1.4834,2.0987l-.7879.7724-.8233.5592-.8625.3249-.1902.0372q-1.7613.3627-4.3921-1.5687a15.81979,15.81979,0,0,1-2.0521-1.9018,19.69112,19.69112,0,0,1-2.1616-2.8308,5.63284,5.63284,0,0,1-1.1943-3.6164l.1238-.4016a1.95807,1.95807,0,0,1,.4657-.6425,5.81631,5.81631,0,0,1,1.9274-1.0429Z" class="coloredb6a4 svgShape"/><path fill="#ffb31b" d="M65.3434,86.482c-.2412.3813-.4627.7289-.672,1.0263a8.34024,8.34024,0,0,1-1.146,1.4423,3.44532,3.44532,0,0,1-1.8668,1.0306,3.056,3.056,0,0,1-1.1765-.0435l-.6949-.2099a11.82818,11.82818,0,0,1-3.1119-2.0013,21.81205,21.81205,0,0,1-1.6031-1.5157l-.0097-.0106-.7563-.8229c-.0037-.0083-.0157-.0128-.0193-.0211-.4891-.5703-.9377-1.1388-1.3532-1.7222a10.7192,10.7192,0,0,1-1.6947-3.3815,4.52734,4.52734,0,0,1,.0113-2.6219,2.71124,2.71124,0,0,1,.516-.8868,2.05369,2.05369,0,0,1,.7528-.5361l.4431-.1192.4793-.0163a2.94731,2.94731,0,0,1,.6929.1611l.5028.2463a6.251,6.251,0,0,1,1.0565.7727,18.38269,18.38269,0,0,1,1.9921,2.1508c.079.0986.158.1973.2407.3042q.8529,1.0551,2.9095,4.0088l1.142-.3879.5432-.184a10.50932,10.50932,0,0,0,2.6871,3.2247l.0216.0151Z" class="colorffb31b svgShape"/><path fill="#edb6a4" d="M53.348,73.8884c.0211.3267.0615.6981.1279,1.1206a6.98961,6.98961,0,0,1-1.9147.2284,4.74085,4.74085,0,0,1-1.3218-.3131c-.122-.0506-.2504-.0948-.3852-.1517l.0757-.2054a13.56911,13.56911,0,0,0,.9344-4.888l3.48,1.2561a6.0994,6.0994,0,0,0-.9313,1.9467A3.5459,3.5459,0,0,0,53.348,73.8884Z" class="coloredb6a4 svgShape"/><path d="M54.3443,70.9353a6.0994,6.0994,0,0,0-.9313,1.9467,3.5459,3.5459,0,0,0-.065,1.0064c-.2179-.0053-.4294-.0169-.641-.035a10.45644,10.45644,0,0,0-1.4161.0014,1.10722,1.10722,0,0,0-.5503.1312,1.29509,1.29509,0,0,0-.4635.7971c-.0125.0449-.0251.0899-.0377.1412-.122-.0506-.2504-.0948-.3852-.1517l.0757-.2054a13.56911,13.56911,0,0,0,.9344-4.888Z" opacity=".1" fill="#000000" class="color000 svgShape"/><path fill="#edb6a4" d="M55.3302,71.9295a2.18074,2.18074,0,0,1-.5438,1.3358q-.66945.6093-2.8838-.029a7.43558,7.43558,0,0,1-3.0401-1.6686,1.68341,1.68341,0,0,1-.1741-.1977l-.0322-.0383a4.29526,4.29526,0,0,1-.5076-1.4262,13.48947,13.48947,0,0,1-.1657-2.1585,4.8981,4.8981,0,0,1,.7088-2.785,1.18517,1.18517,0,0,1,.1336-.1801.58613.58613,0,0,1,.1021-.0711,4.01217,4.01217,0,0,1,3.0167-.2665,4.54654,4.54654,0,0,1,2.6605,1.376,3.38055,3.38055,0,0,1,.6158,1.2974,9.865,9.865,0,0,1,.2066,1.4407c.0272.2818.0351.5637.0367.8456A11.847,11.847,0,0,1,55.3302,71.9295Z" class="coloredb6a4 svgShape"/><path d="M55.427,68.5584a2.93467,2.93467,0,0,1-.4674.0666c-.5125.0285-1.0187.0377-1.5314.0276a2.62446,2.62446,0,0,0-1.3383.174c-.9903.5309-.911,2.1389-1.869,2.7208a1.49261,1.49261,0,0,1-1.3584.0203,1.68341,1.68341,0,0,1-.1741-.1977l-.0322-.0383a4.29526,4.29526,0,0,1-.5076-1.4262,13.48947,13.48947,0,0,1-.1657-2.1585,4.8981,4.8981,0,0,1,.7088-2.785,2.19774,2.19774,0,0,1,.2357-.2512,4.01217,4.01217,0,0,1,3.0167-.2665,4.54654,4.54654,0,0,1,2.6605,1.376,3.38055,3.38055,0,0,1,.6158,1.2974A9.865,9.865,0,0,1,55.427,68.5584Z" opacity=".1" fill="#000000" class="color000 svgShape"/><path fill="#3c3e8f" d="M51.6296,73.4142l.0471-.1403a2.10572,2.10572,0,0,0,.0822-1.506,2.51654,2.51654,0,0,0-.2664-.5276l-.9736-1.3959q-.2262-.4053-.1152-.6058.26205-.41565.8625-.117a2.837,2.837,0,0,1,.7747,1.261l.7381-.3667a7.97412,7.97412,0,0,1-.6759-1.5056q-.07965-.41835-.0328-.4557a.33629.33629,0,0,1,.1242-.1959.91712.91712,0,0,1,.5107-.1198l1.465.0418a3.56673,3.56673,0,0,0,.7193-.0773,2.32981,2.32981,0,0,0,1.2452-.7118,2.19624,2.19624,0,0,0,.4708-.8583,2.72,2.72,0,0,0,.0986-.8209,4.28691,4.28691,0,0,0-.5856-2.0098,2.18367,2.18367,0,0,0-.308-.3984l-.1672-.1422a.77017.77017,0,0,0-.6252-.1348,2.06029,2.06029,0,0,0-.5337.1934q-.95655.50775-1.2808.6471a6.77359,6.77359,0,0,1-.8535.3153q-.1584.08445-2.5611.537a8.94762,8.94762,0,0,0-.9688.2656A2.59258,2.59258,0,0,0,46.954,66.275a3.64737,3.64737,0,0,0-.1577.8778,5.61138,5.61138,0,0,0,.1081,1.4541,7.15407,7.15407,0,0,0,.2628.969,6.25657,6.25657,0,0,0,.613,1.2952,4.80771,4.80771,0,0,0,.5178.6813l.285.2862a5.01091,5.01091,0,0,0,.614.4812,10.2133,10.2133,0,0,0,2.4326,1.0944" class="color3c3e8f svgShape"/><path fill="#edb6a4" d="M68.6299,73.5146l2.4531-1.8323a3.57388,3.57388,0,0,1-.0808,2.0241,3.135,3.135,0,0,1-1.0343,1.7149,1.56044,1.56044,0,0,1-1.2842.1845,2.54108,2.54108,0,0,1-1.4089-.9005,2.17044,2.17044,0,0,1-.2111-.343,2.031,2.031,0,0,1-.1747-.5167.84861.84861,0,0,1,.1269-.7489.54742.54742,0,0,1,.5288-.0591,5.34905,5.34905,0,0,1,1.0852.477" class="coloredb6a4 svgShape"/><path d="M64.6714,87.5083a8.34024,8.34024,0,0,1-1.146,1.4423,3.44532,3.44532,0,0,1-1.8668,1.0306,3.056,3.056,0,0,1-1.1765-.0435l-.6949-.2099a11.82818,11.82818,0,0,1-3.1119-2.0013,21.81205,21.81205,0,0,1-1.6031-1.5157l.3765.3802a6.40086,6.40086,0,0,0-.3974.7379,12.23705,12.23705,0,0,0-.865,2.286,24.38975,24.38975,0,0,0-.5572,8.3238c-.1026-.1625-.5553-.7569-.6331-.9305a7.49835,7.49835,0,0,1-.4903-1.9353,13.14724,13.14724,0,0,1,.4616-6.6125c.4029-1.0397,1.0193-2.046,1.3196-3.1042a.33644.33644,0,0,0,.0236-.0801,4.22271,4.22271,0,0,0,.1539-1.3402,2.662,2.662,0,0,0,.8912,1.5668c.0194.0211.0447.0445.0641.0656a22.573,22.573,0,0,0,2.5354,2.2548,7.19617,7.19617,0,0,0,1.977,1.1645,3.18374,3.18374,0,0,0,2.258.0304,2.18838,2.18838,0,0,0,1.2803-1.4529c.055-.1984.039-.5885.2719-.6781.2413-.0932.6442.3071.7919.4594.006.0022.0037.0082.0097.0105A.91722.91722,0,0,1,64.6714,87.5083Z" opacity=".1" fill="#000000" class="color000 svgShape"/><path fill="#6927ff" d="M62.295,82.5043l.1535.1006a9.61943,9.61943,0,0,1,1.6574,1.2884,16.45944,16.45944,0,0,1,1.683,2.124,5.19436,5.19436,0,0,1-.4221,1.7293.72446.72446,0,0,1-.2232.2519l-.1394.0604-.1608.01a.8996.8996,0,0,1-.3387-.1188,7.13349,7.13349,0,0,1-1.6954-1.731,11.43279,11.43279,0,0,1-1.3739-2.2418,2.30672,2.30672,0,0,1-.1538-.5155l-.0141-.2007a.64756.64756,0,0,1,.0771-.3056q.1611-.3231.9504-.4512" class="color6927ff svgShape"/></g></g></svg>